<?xml version="1.0" standalone="no"?>
<!DOCTYPE svg PUBLIC "-//W3C//DTD SVG 20010904//EN"
 "http://www.w3.org/TR/2001/REC-SVG-20010904/DTD/svg10.dtd">
<svg version="1.0" xmlns="http://www.w3.org/2000/svg"
 width="1024.000000pt" height="1024.000000pt" viewBox="100.72 81.60 819.12 819.12"
 preserveAspectRatio="xMidYMid meet">

<g transform="translate(0.000000,1024.000000) scale(0.100000,-0.100000)"
fill="#000000" stroke="none">
<path d="M7907 8994 c-244 -46 -613 -177 -847 -301 -217 -116 -222 -118 -275
-118 -27 0 -78 7 -112 15 -57 13 -67 12 -120 -4 -32 -10 -134 -56 -228 -101
-128 -62 -210 -111 -335 -199 -259 -183 -241 -173 -333 -185 -47 -6 -313 -12
-623 -13 l-542 -3 -128 86 c-250 168 -478 297 -616 349 -81 30 -183 50 -263
50 -67 0 -77 3 -255 89 -392 187 -926 340 -1113 318 -103 -13 -133 -53 -153
-208 -8 -60 -31 -169 -50 -242 -135 -508 -174 -765 -161 -1062 12 -247 39
-383 147 -724 33 -104 60 -203 60 -220 0 -43 -46 -91 -194 -203 -273 -207
-526 -507 -632 -749 -73 -166 -111 -332 -123 -541 -9 -143 -3 -186 32 -219 20
-19 30 -21 112 -15 50 3 100 8 112 12 36 10 43 -19 31 -137 -6 -57 -11 -234
-12 -394 -1 -251 2 -314 22 -470 25 -191 40 -235 82 -245 52 -12 71 2 218 163
140 152 255 250 271 231 4 -5 18 -90 30 -189 26 -218 62 -398 103 -514 58
-167 217 -468 315 -598 47 -63 95 -37 156 83 42 83 71 113 95 98 9 -6 48 -64
85 -130 134 -234 212 -339 367 -496 80 -81 159 -152 175 -158 19 -8 58 -9 107
-5 89 7 104 2 258 -100 143 -94 235 -137 291 -137 54 0 79 11 136 63 24 22 50
39 59 39 10 0 69 -21 133 -46 257 -103 481 -169 656 -194 303 -42 653 -9 918
86 217 77 304 91 380 59 85 -35 171 -12 397 107 264 140 240 131 323 117 67
-11 75 -11 115 10 76 39 253 215 364 362 68 90 179 271 237 387 17 34 35 62
40 62 19 0 42 -33 91 -129 58 -113 79 -136 113 -127 55 13 274 395 361 629 35
93 82 275 141 547 28 130 37 150 63 150 9 0 101 -85 206 -188 194 -191 244
-228 271 -201 43 42 58 339 47 889 -5 239 -7 441 -4 448 8 24 52 26 82 3 48
-35 108 -46 152 -28 54 23 64 67 48 217 -22 216 -75 402 -152 539 -111 198
-326 443 -543 621 -228 187 -275 240 -275 311 0 43 23 128 80 299 129 381 152
757 76 1201 -64 376 -153 777 -187 847 -54 110 -123 136 -282 106z m-5487
-191 c410 -103 665 -222 955 -442 91 -70 289 -265 371 -367 41 -51 81 -95 90
-98 26 -10 59 -7 79 8 18 13 18 15 1 61 -10 26 -54 100 -97 165 -86 131 -113
179 -105 187 10 10 195 -68 272 -116 152 -93 310 -194 369 -236 109 -77 106
-76 262 -64 151 12 695 17 973 9 l176 -5 89 66 c159 117 324 219 478 295 82
41 152 73 153 71 5 -5 -95 -191 -143 -263 -21 -34 -47 -82 -57 -108 -21 -56
-11 -76 38 -76 37 0 53 15 115 108 52 77 238 265 349 352 182 143 473 300 693
374 172 58 439 126 504 129 l50 2 12 -49 c7 -27 24 -128 38 -225 24 -168 48
-281 94 -438 32 -110 69 -327 81 -469 23 -288 -35 -616 -161 -920 -17 -41 -35
-72 -39 -67 -5 4 -20 36 -34 71 -69 165 -188 393 -246 472 -35 47 -110 133
-167 191 -119 123 -114 108 -88 310 24 181 43 274 86 402 76 232 178 415 294
529 38 37 61 66 56 71 -16 16 -151 -32 -266 -94 -138 -74 -243 -155 -316 -242
-95 -113 -304 -434 -363 -557 -82 -171 -84 -156 30 -215 193 -101 481 -345
607 -515 30 -41 104 -158 165 -260 159 -269 277 -446 346 -519 34 -35 132
-127 220 -204 312 -277 480 -499 549 -727 46 -153 48 -160 32 -160 -7 0 -37
11 -67 24 -86 38 -246 85 -312 92 -54 6 -146 -8 -146 -22 0 -2 33 -37 74 -77
66 -64 77 -81 105 -157 87 -231 125 -587 102 -949 -6 -96 -13 -176 -15 -179
-3 -2 -50 34 -106 81 -131 110 -255 193 -349 233 -86 37 -159 56 -166 43 -3
-4 -1 -36 5 -71 20 -129 23 -346 6 -478 -32 -241 -95 -469 -173 -624 -40 -80
-90 -156 -102 -156 -5 0 -32 69 -61 153 -28 83 -68 184 -88 222 -38 72 -167
219 -183 209 -5 -3 -9 -34 -9 -69 0 -85 -26 -257 -56 -374 -45 -173 -168 -444
-262 -577 -52 -73 -206 -234 -224 -234 -6 0 -8 12 -5 28 21 108 28 238 18 329
-11 95 -36 200 -50 216 -4 4 -31 -66 -60 -155 -91 -278 -153 -383 -348 -578
-92 -94 -127 -117 -205 -140 -37 -11 -36 -4 13 103 35 75 42 102 47 173 2 46
1 84 -3 84 -4 0 -24 -18 -45 -39 -41 -43 -135 -108 -279 -196 -130 -78 -197
-110 -325 -157 -504 -182 -1046 -128 -1517 152 -135 80 -189 119 -261 189
l-48 45 0 -44 c0 -54 24 -193 45 -268 9 -30 14 -56 11 -59 -18 -18 -226 136
-313 230 -104 114 -210 322 -280 547 -20 66 -40 120 -43 120 -4 0 -17 -42 -30
-92 -29 -118 -37 -293 -17 -401 7 -43 10 -80 6 -82 -9 -6 -55 30 -104 82 -53
56 -207 303 -266 427 -96 203 -147 399 -165 641 -4 47 -9 85 -11 85 -2 0 -24
-14 -48 -30 -104 -71 -179 -206 -241 -429 -15 -53 -30 -100 -34 -104 -4 -4
-23 16 -43 45 -46 68 -164 424 -201 608 -46 229 -45 392 0 639 l7 34 -49 -7
c-148 -20 -284 -93 -469 -251 -65 -55 -122 -100 -128 -100 -22 0 -29 92 -30
360 -1 210 2 294 16 380 40 254 119 454 221 558 55 55 55 57 33 68 -12 7 -54
14 -92 17 -84 5 -177 -17 -319 -78 -51 -22 -97 -40 -101 -40 -31 0 56 226 138
359 29 47 64 108 78 134 33 67 191 241 340 373 255 228 400 401 492 584 185
367 321 538 611 764 93 73 317 216 338 216 36 0 -122 327 -240 497 -150 217
-242 314 -389 413 -142 95 -303 170 -338 156 -27 -10 -15 -31 66 -120 44 -48
97 -113 116 -144 70 -109 155 -318 188 -460 19 -80 75 -417 75 -448 0 -16 -23
-42 -77 -88 -43 -36 -115 -110 -161 -163 -87 -104 -137 -194 -272 -490 -36
-79 -68 -143 -72 -143 -11 0 -105 248 -137 361 -50 181 -66 302 -65 504 2 215
28 384 98 632 56 198 79 298 110 494 14 86 28 163 32 173 8 22 30 19 264 -41z"/>
<path d="M6946 6460 c-90 -15 -244 -68 -310 -107 -32 -20 -87 -63 -123 -96
-62 -58 -285 -333 -361 -444 -131 -194 -188 -258 -267 -304 -89 -51 -179 -32
-248 54 -28 34 -31 45 -35 126 -4 75 0 104 22 183 33 113 91 235 186 388 70
115 70 115 24 66 -69 -74 -166 -218 -233 -347 -149 -285 -149 -430 0 -593 115
-126 252 -141 384 -40 26 19 36 23 39 13 2 -8 11 -44 20 -81 43 -179 170 -370
304 -452 141 -88 327 -105 498 -46 82 28 187 103 253 179 153 178 215 353 213
601 -1 174 -34 317 -105 455 -43 83 -172 210 -259 255 -38 19 -68 37 -68 41 0
8 199 55 310 74 135 23 144 25 134 35 -14 13 -162 40 -244 45 -41 2 -102 0
-134 -5z m-103 -323 c89 -41 187 -144 237 -248 60 -126 82 -222 82 -359 0
-198 -55 -340 -182 -470 -73 -75 -177 -133 -268 -150 -69 -13 -166 1 -234 34
l-53 25 70 -6 c132 -10 255 38 350 138 98 103 155 255 155 415 0 283 -183 556
-384 571 -28 2 -62 6 -76 9 -24 5 -24 5 9 26 88 56 194 62 294 15z m-437 -436
c89 -54 81 -218 -13 -257 -45 -19 -82 -17 -121 6 -91 55 -96 172 -12 244 39
32 100 35 146 7z"/>
<path d="M3040 6449 c-78 -15 -200 -51 -200 -60 0 -5 22 -9 49 -9 28 0 114
-11 193 -25 234 -40 234 -40 181 -64 -16 -7 -59 -35 -96 -63 -53 -40 -82 -72
-133 -150 -170 -258 -204 -580 -92 -871 35 -92 126 -234 193 -300 191 -189
498 -217 725 -66 43 29 79 67 131 137 85 114 130 208 154 315 9 42 20 77 24
77 3 0 22 -13 41 -29 57 -46 98 -62 156 -62 98 0 173 38 257 131 93 103 112
231 56 384 -35 98 -130 269 -214 385 -78 109 -109 135 -61 51 146 -253 217
-516 172 -633 -29 -78 -115 -135 -180 -121 -58 12 -147 65 -199 117 -70 70
-220 269 -281 370 -129 218 -338 411 -483 446 -21 5 -74 19 -117 30 -83 22
-193 26 -276 10z m530 -290 c39 -10 100 -44 100 -56 0 -5 -32 -8 -70 -9 -171
-3 -309 -135 -382 -364 -19 -64 -23 -96 -23 -215 0 -119 4 -151 23 -215 72
-231 235 -348 469 -338 93 3 95 -8 8 -37 -84 -29 -160 -30 -250 -6 -104 29
-167 64 -236 131 -156 152 -212 453 -139 742 30 117 71 196 132 257 114 114
224 147 368 110z m354 -460 c58 -46 75 -141 35 -206 -73 -117 -249 -59 -249
82 0 109 134 187 214 124z"/>
<path d="M4885 5069 c-481 -46 -957 -287 -1259 -638 -48 -56 -94 -101 -103
-101 -75 0 -317 25 -398 41 -333 67 -577 195 -819 428 l-78 76 42 -80 c91
-171 167 -289 233 -365 106 -120 213 -220 322 -303 206 -156 378 -316 448
-418 32 -47 39 -66 47 -139 23 -200 94 -377 198 -490 68 -75 191 -166 289
-216 198 -100 431 -117 670 -48 90 26 253 102 332 155 24 17 69 43 100 58 31
16 81 45 111 65 30 20 62 36 70 36 9 0 43 -16 76 -36 32 -20 86 -51 119 -69
33 -18 104 -58 157 -89 195 -113 353 -158 558 -159 231 -1 376 56 593 231 151
123 235 290 267 534 15 119 15 119 65 184 78 101 193 210 392 370 105 85 238
203 295 263 112 117 246 306 318 451 l42 85 -69 -71 c-77 -80 -167 -155 -252
-214 -148 -100 -394 -200 -589 -239 -95 -19 -374 -47 -403 -40 -8 2 -69 65
-136 140 -66 74 -139 150 -161 167 -75 60 -267 175 -387 233 -355 170 -708
234 -1090 198z m352 -100 c267 -22 463 -79 748 -218 258 -125 368 -218 504
-426 101 -153 154 -255 195 -375 47 -140 63 -265 46 -368 -41 -254 -182 -475
-359 -559 -155 -73 -347 -101 -507 -72 -83 14 -237 66 -314 104 -72 36 -287
194 -337 246 l-32 34 -7 207 -7 206 44 12 c92 23 188 63 224 92 20 17 61 66
92 109 48 69 77 99 97 99 3 0 6 -12 7 -27 0 -23 7 -14 35 43 69 141 67 260 -5
372 -45 68 -81 98 -168 136 -140 61 -267 81 -462 73 -210 -8 -372 -62 -476
-158 -73 -68 -90 -114 -90 -249 0 -107 2 -119 28 -165 15 -27 36 -61 47 -75
l20 -25 0 38 c0 30 4 37 19 37 26 0 49 -22 118 -115 33 -44 69 -88 80 -97 15
-14 174 -79 231 -94 18 -5 6 -410 -14 -441 -17 -28 -268 -219 -334 -256 -104
-56 -309 -113 -449 -124 -91 -7 -178 13 -346 78 -104 40 -114 47 -191 123 -66
66 -89 98 -128 176 -135 276 -123 522 41 843 70 136 139 229 285 378 104 106
121 120 223 171 371 188 591 255 895 271 30 2 69 4 87 5 18 1 90 -3 160 -9z
m70 -437 c91 -25 191 -71 243 -113 58 -47 53 -64 -12 -38 -29 11 -100 32 -158
46 -92 23 -126 26 -275 26 -124 0 -193 -4 -255 -17 -90 -19 -213 -64 -267 -98
-33 -20 -33 -20 -33 0 0 41 134 135 254 179 131 47 360 54 503 15z"/>
</g>
</svg>
